<svg width="560" height="560" viewBox="0 0 560 560" fill="none" xmlns="http://www.w3.org/2000/svg">
<g clip-path="url(#clip0_47_4009)">
<g filter="url(#filter0_d_47_4009)">
<path d="M45.5526 248.353C50.3726 246.368 481.918 86.5543 494.496 83.3983C490.436 101.557 477.097 118.385 451.299 135.61C425.501 152.836 154.076 270.179 152.201 271.24C150.326 272.302 149.516 275.239 151.382 277.652C152.183 278.19 404.938 471.135 459.38 514.658C451.662 520.614 412.863 507.786 387.225 494.049C361.587 480.313 48.4454 266.54 43.64 263.313C38.8347 260.086 39.0008 250.336 45.5526 248.353Z" fill="url(#paint0_linear_47_4009)"/>
</g>
<g filter="url(#filter1_d_47_4009)">
<path d="M381.745 107.089C383.357 106.498 383.519 104.294 381.996 103.501C354.764 89.3399 323.817 81.3363 291.001 81.3363C208.183 81.3363 137.271 132.311 107.929 204.597C107.283 206.188 108.835 207.764 110.446 207.168C112.994 206.224 115.593 205.261 118.239 204.281C118.749 204.092 119.16 203.702 119.38 203.205C148.456 137.321 214.359 91.3363 291.001 91.3363C320.162 91.3363 347.768 97.9933 372.382 109.871C372.873 110.107 373.438 110.137 373.949 109.949C376.575 108.986 379.174 108.032 381.745 107.089Z" fill="url(#paint1_linear_47_4009)"/>
<path d="M390.672 440.884C389.561 440.027 389.655 438.32 390.843 437.572C443.51 404.376 478.501 345.692 478.501 278.836C478.501 234.756 463.29 194.229 437.831 162.217C437.435 161.72 437.599 160.982 438.169 160.702C440.461 159.577 442.663 158.483 444.745 157.432C445.597 157.002 446.635 157.228 447.22 157.982C473.098 191.385 488.501 233.312 488.501 278.836C488.501 348.48 452.454 409.704 397.999 444.869C397.292 445.326 396.373 445.284 395.706 444.769C394.042 443.485 392.364 442.189 390.672 440.884Z" fill="url(#paint2_linear_47_4009)"/>
<path d="M109.349 327.399C109.745 327.668 110.031 328.072 110.158 328.533C131.937 407.967 204.653 466.336 291.001 466.336C298.239 466.336 305.381 465.926 312.405 465.128C312.877 465.074 313.353 465.188 313.749 465.452C314.008 465.624 314.266 465.797 314.524 465.969C316.857 467.524 319.153 469.053 321.408 470.553C322.911 471.553 322.423 473.859 320.638 474.127C310.97 475.582 301.074 476.336 291.001 476.336C197.574 476.336 119.298 411.465 98.7609 324.309C98.3483 322.557 100.293 321.24 101.781 322.252C104.258 323.937 106.782 325.653 109.349 327.399Z" fill="url(#paint3_linear_47_4009)"/>
</g>
</g>
<defs>
<filter id="filter0_d_47_4009" x="-11.6984" y="63.3983" width="558.195" height="536.757" filterUnits="userSpaceOnUse" color-interpolation-filters="sRGB">
<feFlood flood-opacity="0" result="BackgroundImageFix"/>
<feColorMatrix in="SourceAlpha" type="matrix" values="0 0 0 0 0 0 0 0 0 0 0 0 0 0 0 0 0 0 127 0" result="hardAlpha"/>
<feMorphology radius="12" operator="erode" in="SourceAlpha" result="effect1_dropShadow_47_4009"/>
<feOffset dy="32"/>
<feGaussianBlur stdDeviation="32"/>
<feComposite in2="hardAlpha" operator="out"/>
<feColorMatrix type="matrix" values="0 0 0 0 0.0625882 0 0 0 0 0.0926346 0 0 0 0 0.15702 0 0 0 0.14 0"/>
<feBlend mode="normal" in2="BackgroundImageFix" result="effect1_dropShadow_47_4009"/>
<feBlend mode="normal" in="SourceGraphic" in2="effect1_dropShadow_47_4009" result="shape"/>
</filter>
<filter id="filter1_d_47_4009" x="46.7047" y="61.3363" width="493.796" height="499" filterUnits="userSpaceOnUse" color-interpolation-filters="sRGB">
<feFlood flood-opacity="0" result="BackgroundImageFix"/>
<feColorMatrix in="SourceAlpha" type="matrix" values="0 0 0 0 0 0 0 0 0 0 0 0 0 0 0 0 0 0 127 0" result="hardAlpha"/>
<feMorphology radius="12" operator="erode" in="SourceAlpha" result="effect1_dropShadow_47_4009"/>
<feOffset dy="32"/>
<feGaussianBlur stdDeviation="32"/>
<feComposite in2="hardAlpha" operator="out"/>
<feColorMatrix type="matrix" values="0 0 0 0 0.0625882 0 0 0 0 0.0926346 0 0 0 0 0.15702 0 0 0 0.14 0"/>
<feBlend mode="normal" in2="BackgroundImageFix" result="effect1_dropShadow_47_4009"/>
<feBlend mode="normal" in="SourceGraphic" in2="effect1_dropShadow_47_4009" result="shape"/>
</filter>
<linearGradient id="paint0_linear_47_4009" x1="501.501" y1="290.336" x2="40.0008" y2="257.836" gradientUnits="userSpaceOnUse">
<stop stop-color="#FFDAAF"/>
<stop offset="1" stop-color="#C1996C"/>
</linearGradient>
<linearGradient id="paint1_linear_47_4009" x1="450.001" y1="143.336" x2="141.001" y2="408.336" gradientUnits="userSpaceOnUse">
<stop stop-color="#FBD6AB"/>
<stop offset="1" stop-color="#C29A6C"/>
</linearGradient>
<linearGradient id="paint2_linear_47_4009" x1="450.001" y1="143.336" x2="141.001" y2="408.336" gradientUnits="userSpaceOnUse">
<stop stop-color="#FBD6AB"/>
<stop offset="1" stop-color="#C29A6C"/>
</linearGradient>
<linearGradient id="paint3_linear_47_4009" x1="450.001" y1="143.336" x2="141.001" y2="408.336" gradientUnits="userSpaceOnUse">
<stop stop-color="#FBD6AB"/>
<stop offset="1" stop-color="#C29A6C"/>
</linearGradient>
<clipPath id="clip0_47_4009">
<rect width="560" height="560" fill="white"/>
</clipPath>
</defs>
</svg>
