<svg width="1940" height="2197" viewBox="0 0 1940 2197" fill="none" xmlns="http://www.w3.org/2000/svg">
<g opacity="0.35">
<path d="M816.177 324.264L813.293 327.974C813.651 327.299 813.006 326.725 811.357 326.254C809.96 325.823 808.748 324.978 807.896 323.839C757.878 257.345 729.876 174.03 753.222 91.8683C753.85 89.5936 754.792 87.7526 756.049 86.3454C757.703 84.4998 759.249 83.1256 760.686 82.223C761.282 81.8468 761.977 81.6573 762.681 81.6786C763.385 81.7 764.067 81.9313 764.639 82.343C765.211 82.7546 765.647 83.3278 765.891 83.9891C766.135 84.6503 766.176 85.3693 766.008 86.0541C759.146 115.913 750.811 148.179 756.739 179.294C767.474 236.072 791.938 273.807 816.177 324.264Z" fill="#E4CFB7"/>
<path d="M842.352 491.784C836.376 492.856 833.932 496.048 835.022 501.359C744.767 402.078 673.458 269.769 682.788 134.192C683.214 128.451 685.642 125.068 690.071 124.042C692.162 123.565 693.202 124.373 693.192 126.464C693.392 187.396 694.22 232.307 715.263 286.209C744.77 361.743 787.133 430.268 842.352 491.784Z" fill="#E4CFB7"/>
<path d="M695.587 453.487C659.516 393.282 639.47 327.85 635.45 257.193C634.617 242.574 636.137 228.812 640.009 215.908C640.176 215.338 640.544 214.848 641.044 214.528C641.544 214.208 642.142 214.079 642.73 214.164C643.317 214.25 643.854 214.545 644.241 214.995C644.628 215.445 644.84 216.019 644.838 216.613C646.244 310.512 668.355 398.74 720.819 476.929C721.261 477.584 721.46 478.373 721.38 479.159C721.301 479.945 720.948 480.679 720.384 481.232C719.82 481.785 719.08 482.123 718.292 482.186C717.505 482.25 716.72 482.035 716.075 481.579C706.3 474.915 701.148 462.721 695.587 453.487Z" fill="#E4CFB7"/>
<path d="M816.176 324.264L871.578 396.571L862.523 405.556C843.431 380.813 827.021 354.952 813.292 327.974L816.176 324.264Z" fill="#E4CFB7"/>
<path d="M871.578 396.571C934.06 481.91 1006.12 557.471 1087.76 623.255C1102.56 635.154 1140.32 660.931 1201.06 700.588C1196.86 703.406 1194.69 707.337 1194.55 712.382C1136.24 676.016 1091.29 644.822 1059.7 618.799C990.142 561.458 924.417 490.377 862.523 405.556L871.578 396.571Z" fill="#E4CFB7"/>
<path d="M651.49 505.68L642.214 514.654C609.857 459.858 591.272 400.657 586.459 337.048C586.428 336.664 586.1 334.88 585.476 331.695C584.943 329.062 585.371 326.707 586.759 324.63C587.151 324.031 587.72 323.569 588.387 323.309C589.054 323.049 589.786 323.005 590.479 323.182C591.172 323.359 591.793 323.748 592.254 324.296C592.715 324.844 592.993 325.522 593.049 326.236C599.161 390.843 618.641 450.658 651.49 505.68Z" fill="#E4CFB7"/>
<path d="M842.352 491.784C914.815 569.134 993.753 640.404 1079.17 705.595C1075.31 707.92 1072.41 711.025 1070.46 714.912C984.813 649.987 906.335 578.802 835.022 501.358C833.933 496.048 836.376 492.856 842.352 491.784Z" fill="#E4CFB7"/>
<path d="M830.095 593.246C827.505 593.643 824.251 596.192 820.333 600.892L731.048 504.099C730.393 503.377 729.97 502.475 729.832 501.509C729.695 500.544 729.85 499.559 730.278 498.683C730.705 497.806 731.386 497.078 732.231 496.592C733.076 496.106 734.048 495.884 735.02 495.956C738.224 496.235 741.536 498.342 744.957 502.278C772.218 533.62 800.597 563.943 830.095 593.246Z" fill="#E4CFB7"/>
<path d="M651.49 505.68C707.187 592.833 781.562 650.184 853.736 721.386C854.252 721.914 854.581 722.6 854.67 723.336C854.759 724.071 854.604 724.814 854.228 725.447C853.852 726.079 853.278 726.564 852.597 726.824C851.915 727.085 851.166 727.106 850.468 726.885C845.451 725.336 840.623 722.686 835.986 718.936C762.236 659.197 696.519 592.513 642.214 514.654L651.49 505.68Z" fill="#E4CFB7"/>
<path d="M1201.06 700.588L1321.21 783.124C1320.57 786.405 1318.82 790.089 1315.95 794.178L1194.56 712.382C1194.69 707.337 1196.86 703.406 1201.06 700.588Z" fill="#E4CFB7"/>
<path d="M830.095 593.246L1054.78 789.679C1054.08 795.561 1051.14 798.317 1045.94 797.948L820.333 600.891C824.251 596.192 827.505 593.643 830.095 593.246Z" fill="#E4CFB7"/>
<path d="M581.611 570.727C576.258 562.455 569.687 555.04 568.229 544.324C568.16 543.939 568.224 543.543 568.411 543.2C568.598 542.857 568.896 542.589 569.256 542.438C569.617 542.288 570.017 542.265 570.392 542.373C570.767 542.481 571.094 542.714 571.319 543.033C662.053 661.648 746.395 730.492 875.98 840.062C877.581 841.417 878.728 842.968 879.422 844.716C880.345 847.057 880.8 848.974 880.787 850.467C880.791 851.279 880.56 852.075 880.124 852.759C879.687 853.444 879.063 853.989 878.326 854.329C877.588 854.669 876.769 854.79 875.965 854.677C875.161 854.564 874.406 854.222 873.791 853.692C773.869 769.38 653.263 681.768 581.611 570.727Z" fill="#E4CFB7"/>
<path d="M1079.17 705.595C1181.83 785.76 1292.63 864.453 1384.01 957.181C1384.41 963.739 1382.48 968.173 1378.22 970.485C1354.57 944.034 1328.81 919.7 1300.93 897.481C1224.21 836.357 1147.38 775.501 1070.46 714.912C1072.41 711.025 1075.31 707.919 1079.17 705.595Z" fill="#E4CFB7"/>
<path d="M1321.21 783.124C1350.81 803.031 1372.96 818.698 1387.68 830.123C1538.06 946.62 1602.33 1124.44 1619.07 1309.08C1614.41 1308.09 1609.71 1310.53 1604.98 1316.4C1593.56 1165.21 1546.28 1017.37 1445.41 900.343C1408.37 857.38 1362.25 826.201 1315.95 794.178C1318.82 790.089 1320.57 786.405 1321.21 783.124Z" fill="#E4CFB7"/>
<path d="M1054.78 789.679C1102.5 831.154 1151.84 870.659 1202.8 908.195L1203.27 913.559C1203.43 915.364 1202.69 916.67 1201.06 917.475L1195.77 920.052L1045.94 797.948C1051.14 798.317 1054.08 795.561 1054.78 789.679Z" fill="#E4CFB7"/>
<path d="M897.568 776.551C911.794 788.139 925.175 795.263 927.455 792.462C929.735 789.661 920.051 777.996 905.825 766.408C891.598 754.82 878.217 747.696 875.937 750.497C873.657 753.298 883.341 764.963 897.568 776.551Z" fill="#E4CFB7"/>
<path d="M942.643 817.95C936.91 812.664 937.719 808.894 945.07 806.637C946.198 806.302 947.394 806.266 948.541 806.531C949.687 806.797 950.746 807.355 951.612 808.152C1016.53 867.541 1082.99 924.747 1150.98 979.772C1160.53 987.47 1168.35 995.495 1174.45 1003.85C1174.97 1004.54 1175.23 1005.41 1175.17 1006.28C1175.1 1007.15 1174.73 1007.96 1174.1 1008.57C1173.48 1009.19 1172.66 1009.55 1171.79 1009.6C1170.92 1009.65 1170.06 1009.38 1169.37 1008.84C1090.48 948.209 1014.9 884.578 942.643 817.95Z" fill="#E4CFB7"/>
<path d="M1202.8 908.195C1434.51 1087.67 1535.2 1307.03 1421.54 1590.71C1421.4 1591.07 1421.19 1591.41 1420.91 1591.7C1420.64 1591.98 1420.31 1592.21 1419.95 1592.37C1419.59 1592.53 1419.2 1592.62 1418.8 1592.63C1418.41 1592.64 1418.02 1592.57 1417.65 1592.42C1413.91 1590.97 1412.7 1588.05 1414.01 1583.67C1423.8 1550.38 1432.68 1516.8 1440.62 1482.94C1495.92 1247.33 1375.87 1059.47 1195.77 920.052L1201.06 917.475C1202.69 916.67 1203.43 915.364 1203.27 913.559L1202.8 908.195Z" fill="#E4CFB7"/>
<path d="M905.828 880.525C905.282 879.892 904.957 879.098 904.901 878.264C904.846 877.429 905.063 876.599 905.519 875.898C905.976 875.197 906.648 874.664 907.434 874.378C908.22 874.093 909.077 874.07 909.877 874.314C921.128 878.012 928.438 887.393 936.742 895.735C999.297 958.919 1065.17 1018.43 1134.37 1074.28C1140.18 1078.95 1142.51 1082.96 1141.36 1086.31C1139.48 1091.79 1136.31 1092.68 1131.85 1088.98C1052.09 1022.73 976.079 959.773 905.828 880.525Z" fill="#E4CFB7"/>
</g>
<g opacity="0.35">
<path d="M1202.52 2040.64L1198.78 2029.83C1120.22 2044.93 1040.55 2050.68 959.764 2047.08C954.093 2046.82 949.254 2047.24 945.248 2048.35C944.121 2048.63 943.133 2049.31 942.465 2050.26C941.797 2051.21 941.493 2052.37 941.611 2053.52C941.729 2054.68 942.259 2055.76 943.105 2056.55C943.951 2057.35 945.055 2057.81 946.216 2057.86C1032.05 2062.98 1117.49 2057.24 1202.52 2040.64Z" fill="#E4CFB7"/>
<path d="M1202.52 2040.64C1289.53 2024.26 1367.03 1986.22 1435.01 1926.53C1432.69 1927.42 1429.44 1925.34 1425.25 1920.29C1359.89 1975.46 1284.4 2011.97 1198.78 2029.83L1202.52 2040.64Z" fill="#E4CFB7"/>
<path d="M908.689 2046.4C920.185 2047.71 929.26 2050.92 928.959 2053.57C928.658 2056.22 919.094 2057.31 907.597 2056C896.101 2054.7 887.026 2051.49 887.327 2048.84C887.628 2046.19 897.192 2045.1 908.689 2046.4Z" fill="#E4CFB7"/>
<path d="M763.091 2019.38C783.98 2029.3 845.227 2054.64 866.652 2048.89C867.388 2048.7 868.04 2048.26 868.507 2047.66C868.974 2047.06 869.23 2046.32 869.235 2045.56C869.241 2044.8 868.997 2044.06 868.539 2043.45C868.082 2042.84 867.436 2042.4 866.703 2042.19L765.56 2012.71C764.68 2012.37 763.706 2012.39 762.852 2012.78C761.998 2013.16 761.335 2013.88 761.007 2014.76C760.68 2015.65 760.716 2016.63 761.107 2017.5C761.497 2018.36 762.211 2019.04 763.091 2019.38Z" fill="#E4CFB7"/>
<path d="M1364.37 1886.67C1362.02 1882.15 1359.39 1879.47 1356.49 1878.62C1251.52 1956.85 1129.73 1978.76 999.534 1979.15C997.004 1979.85 997.574 1983.33 1001.24 1989.59C1132.64 1990.68 1259.83 1971.43 1364.37 1886.67Z" fill="#E4CFB7"/>
<path d="M1435.01 1926.53C1567.71 1826.64 1595.32 1666.46 1563.66 1510.66C1561.65 1500.75 1561.02 1486.86 1554.86 1475.26C1554.33 1474.24 1553.47 1473.43 1552.41 1472.98C1551.35 1472.53 1550.17 1472.46 1549.07 1472.79C1547.97 1473.11 1547.02 1473.81 1546.37 1474.76C1545.73 1475.72 1545.44 1476.86 1545.56 1478.01C1549.58 1523 1560.21 1571.91 1560.61 1612.78C1561.86 1736.26 1526.18 1842.6 1425.25 1920.29C1429.44 1925.34 1432.69 1927.42 1435.01 1926.53Z" fill="#E4CFB7"/>
<path d="M1001.24 1989.59C997.574 1983.33 997.004 1979.85 999.534 1979.14L869.19 1969.24C869.138 1970.12 869.361 1970.76 869.859 1971.17C901.393 1991.85 962.039 1990.12 1001.24 1989.59Z" fill="#E4CFB7"/>
<path d="M709.983 1988.57C721.524 1996 729.38 2004.36 727.53 2007.23C725.68 2010.11 714.823 2006.41 703.282 1998.97C691.74 1991.54 683.884 1983.18 685.734 1980.31C687.585 1977.44 698.441 1981.14 709.983 1988.57Z" fill="#E4CFB7"/>
<path d="M869.86 1971.17C869.361 1970.76 869.138 1970.12 869.19 1969.23C866.715 1966.97 862.608 1963.68 859.317 1962.57C811.305 1946.34 764.866 1926.53 720.001 1903.13C718.462 1902.37 716.999 1902 715.612 1902.03C713.136 1902.1 711.653 1902.7 711.162 1903.84C710.474 1905.39 710.41 1907.15 710.984 1908.75C711.557 1910.35 712.724 1911.67 714.244 1912.43C761.716 1936.39 810.296 1956.09 859.983 1971.53C863.32 1972.57 866.612 1972.45 869.86 1971.17Z" fill="#E4CFB7"/>
<path d="M1364.37 1886.67C1464.74 1814.49 1522.47 1715.53 1518.72 1590.72C1516.84 1528.56 1508.98 1473.21 1495.15 1424.67C1493.41 1418.51 1491.98 1410.33 1487.32 1405.53C1486.8 1404.99 1486.13 1404.64 1485.4 1404.52C1484.66 1404.39 1483.91 1404.51 1483.25 1404.85C1482.59 1405.18 1482.05 1405.73 1481.72 1406.39C1481.38 1407.06 1481.27 1407.81 1481.4 1408.54C1486.74 1438.7 1496.29 1468.01 1499.47 1496.56C1505.63 1550.85 1509.51 1584.12 1505.61 1630.79C1496.3 1740.36 1440.32 1812.94 1356.49 1878.62C1359.39 1879.47 1362.02 1882.15 1364.37 1886.67Z" fill="#E4CFB7"/>
<path d="M1009.41 1915.69C1013.67 1923.72 1013.87 1927.96 1010.02 1928.38C1199.79 1932.02 1354.91 1858.33 1437.72 1684.06C1438.01 1683.43 1438.13 1682.73 1438.05 1682.04C1437.97 1681.34 1437.69 1680.69 1437.26 1680.14C1436.82 1679.6 1436.24 1679.18 1435.59 1678.95C1434.93 1678.71 1434.22 1678.67 1433.54 1678.81C1432.98 1678.97 1432.15 1680.06 1431.06 1682.09C1340.92 1849.37 1194.66 1917.75 1009.41 1915.69Z" fill="#E4CFB7"/>
<path d="M1010.02 1928.38C1013.87 1927.96 1013.67 1923.72 1009.41 1915.69C962.506 1914.39 916.104 1908.67 870.199 1898.53C867.171 1897.84 864.796 1897.61 863.073 1897.83C859.012 1898.32 857.082 1900.36 857.284 1903.95C857.366 1905.15 857.829 1906.28 858.606 1907.2C859.383 1908.11 860.433 1908.75 861.6 1909.02C912.682 1920.78 962.155 1927.23 1010.02 1928.38Z" fill="#E4CFB7"/>
<path d="M462.771 1766.49C457.134 1767.94 453.405 1769.68 451.583 1771.71C517.213 1837.44 580.065 1904.79 653.551 1962.06C653.907 1962.36 654.352 1962.52 654.813 1962.54C655.275 1962.55 655.727 1962.4 656.097 1962.13C656.467 1961.85 656.734 1961.46 656.855 1961.01C656.976 1960.57 656.943 1960.09 656.763 1959.67C653.732 1952.16 648.311 1948.52 642.651 1943.27C580.799 1886.14 520.839 1827.21 462.771 1766.49Z" fill="#E4CFB7"/>
<path d="M637.16 1804.5C698.439 1849.35 765.961 1881.63 839.725 1901.34C841.554 1901.83 842.661 1901.16 843.046 1899.31C843.96 1894.86 841.857 1891.77 836.737 1890.04C763.012 1864.91 693.957 1829.68 629.568 1784.34C625.445 1781.44 623.316 1782.5 623.183 1787.53C622.976 1795.41 631.128 1800.07 637.16 1804.5Z" fill="#E4CFB7"/>
<path d="M665.698 1873.74C685.154 1885.24 699.542 1896.91 697.834 1899.8C696.126 1902.69 678.968 1895.71 659.511 1884.21C640.055 1872.71 625.667 1861.04 627.375 1858.15C629.084 1855.26 646.241 1862.24 665.698 1873.74Z" fill="#E4CFB7"/>
<path d="M1344.79 1670.81C1256.94 1775.32 1133.27 1808.32 1004.57 1821.37C967.541 1825.15 930.586 1821.23 893.012 1817.96C892.291 1817.9 891.575 1818.12 891.018 1818.59C890.46 1819.05 890.106 1819.71 890.031 1820.43C889.335 1826.6 891.518 1829.99 896.582 1830.6C914.196 1832.71 931.777 1833.37 949.324 1832.56C950.87 1832.51 952.326 1831.88 953.399 1830.81C956.19 1828.16 959.432 1826.59 963.124 1826.08C963.574 1826.01 964.035 1826.05 964.466 1826.2C964.897 1826.35 965.287 1826.6 965.601 1826.94C965.915 1827.27 966.144 1827.68 966.269 1828.13C966.394 1828.57 966.411 1829.05 966.318 1829.5C965.612 1832.64 966.92 1834.19 970.241 1834.13C1134.87 1830.3 1279.97 1789.36 1376.76 1648.04C1381.49 1641.08 1385.35 1631.18 1387.79 1623.58C1387.94 1623.04 1387.9 1622.46 1387.67 1621.94C1387.44 1621.43 1387.04 1621 1386.54 1620.75C1386.04 1620.49 1385.46 1620.42 1384.91 1620.54C1384.36 1620.66 1383.87 1620.97 1383.52 1621.41C1371.33 1638.18 1358.42 1654.64 1344.79 1670.81Z" fill="#E4CFB7"/>
<path d="M360.569 1367.43C277.301 1275.55 179.386 1200.38 67.9388 1146.86C62.1529 1144.09 57.1857 1144.39 53.037 1147.75C52.3365 1148.33 51.7894 1149.07 51.4453 1149.91C51.1012 1150.76 50.971 1151.67 51.0661 1152.57C51.1612 1153.47 51.4785 1154.33 51.9899 1155.07C52.5013 1155.81 53.1905 1156.42 53.9952 1156.82L72.4938 1166.16C226.953 1240.81 348.555 1364.1 447.113 1499.63C551.522 1643.19 683.607 1803.23 876.661 1825.37C880.009 1825.75 881.383 1824.16 880.782 1820.59C880.549 1819.02 879.651 1818.01 878.088 1817.59C859.359 1812.38 840.615 1807.2 821.856 1802.04C677.349 1762.4 564.56 1636.38 480.69 1518.92C442.967 1466.16 402.926 1415.66 360.569 1367.43Z" fill="#E4CFB7"/>
<path d="M106.33 1307.75C88.6748 1297.2 70.7011 1288.44 52.4087 1281.49C49.1532 1280.25 46.3166 1279.87 43.8985 1280.34C38.2749 1281.39 37.1532 1284.81 40.5335 1290.6C130.183 1330.29 203.209 1389.27 275.068 1458.91C392.656 1572.87 466.208 1663.6 568.956 1758.46C579.124 1767.86 589.854 1776.11 601.147 1783.22C601.444 1783.41 601.778 1783.53 602.126 1783.58C602.474 1783.63 602.828 1783.6 603.166 1783.51C603.504 1783.41 603.818 1783.24 604.087 1783.02C604.356 1782.79 604.574 1782.51 604.727 1782.2C605.563 1780.43 605.263 1778.77 603.827 1777.23C582.318 1753.47 555.826 1731.27 536.187 1710.14C480.02 1649.91 423.39 1590.12 366.296 1530.79C287.145 1448.57 203.19 1368.37 106.33 1307.75Z" fill="#E4CFB7"/>
<path d="M451.583 1771.71C453.405 1769.68 457.135 1767.94 462.772 1766.49C372.272 1671.71 276.401 1582.91 175.158 1500.08C138.077 1469.72 98.3271 1443.32 55.9076 1420.88C49.6022 1417.57 44.708 1418.11 41.2244 1422.5C40.7994 1423.03 40.4968 1423.65 40.3391 1424.3C40.1813 1424.96 40.1722 1425.65 40.3122 1426.31C40.4522 1426.97 40.7378 1427.59 41.1484 1428.13C41.5591 1428.67 42.0843 1429.11 42.6861 1429.42C94.8095 1456.88 138.748 1486.87 186.842 1526.77C279.536 1603.74 367.783 1685.38 451.583 1771.71Z" fill="#E4CFB7"/>
</g>
</svg>
