<svg width="69" height="132" viewBox="0 0 69 132" fill="none" xmlns="http://www.w3.org/2000/svg">
<path fill-rule="evenodd" clip-rule="evenodd" d="M40.1961 4.87548C40.0572 5.2932 39.9639 5.73209 39.9164 6.19204C39.9164 6.22336 39.9164 6.25477 39.9164 6.28608C39.5639 7.55205 39.253 8.83721 38.984 10.1417C38.818 10.4897 38.7248 10.8658 38.7043 11.2702C38.5404 11.5856 38.4472 11.9305 38.4246 12.3047C37.9433 13.8647 37.5703 15.4634 37.3058 17.1007C37.3058 17.132 37.3058 17.1634 37.3058 17.1948C37.0398 18.3965 36.8222 19.619 36.6532 20.8623C36.6532 20.9251 36.6532 20.9877 36.6532 21.0504C36.6222 21.0504 36.591 21.0504 36.56 21.0504C36.5752 20.8288 36.5597 20.6094 36.5134 20.3921C36.4748 20.3492 36.4281 20.3178 36.3735 20.2981C36.3143 20.6275 36.2211 20.9411 36.0938 21.2385C36.2062 21.3909 36.1907 21.5163 36.0472 21.6147C36.1612 22.4301 35.9281 23.1041 35.3479 23.6365C35.7209 23.7306 35.7209 23.8246 35.3479 23.9187C35.4412 23.997 35.5344 24.0754 35.6276 24.1538C35.5063 24.4146 35.4131 24.681 35.3479 24.9531C35.3971 25.3467 35.3971 25.7542 35.3479 26.1756C35.3635 26.442 35.379 26.7085 35.3946 26.975C35.6946 27.3885 35.8034 27.8587 35.7209 28.3856C35.4722 28.3856 35.2237 28.3856 34.975 28.3856C34.7891 27.3843 34.6026 26.3812 34.4156 25.3763C34.5602 24.3781 34.6224 23.3751 34.6021 22.367C34.2913 22.367 33.9805 22.367 33.6697 22.367C33.6389 21.612 33.6699 20.8597 33.763 20.11C33.8543 20.3532 33.8854 20.604 33.8562 20.8623C34.1049 20.8623 34.3534 20.8623 34.6021 20.8623C34.6021 21.1131 34.6021 21.3639 34.6021 21.6147C34.7264 21.6147 34.8507 21.6147 34.975 21.6147C34.975 21.3639 34.975 21.1131 34.975 20.8623C35.0993 20.8623 35.2237 20.8623 35.3479 20.8623C35.3479 19.8592 35.3479 18.8562 35.3479 17.853C35.0993 17.853 34.8507 17.853 34.6021 17.853C34.6021 17.4769 34.6021 17.1007 34.6021 16.7246C34.8507 16.7246 35.0993 16.7246 35.3479 16.7246C35.3479 16.8499 35.3479 16.9754 35.3479 17.1007C35.5441 17.1288 35.7306 17.0975 35.9073 17.0067C36.0316 16.8186 36.156 16.6305 36.2803 16.4424C36.1042 15.931 36.0422 15.3981 36.0938 14.8438C36.2181 14.8438 36.3425 14.8438 36.4667 14.8438C36.5312 14.2071 36.6555 13.5801 36.8397 12.9629C36.6555 12.3458 36.5312 11.7188 36.4667 11.0821C36.8276 10.96 37.2005 10.8973 37.5855 10.8941C37.5577 10.6962 37.5887 10.5081 37.6788 10.3298C37.741 10.8313 37.8031 11.3329 37.8652 11.8345C37.9583 11.0848 37.9893 10.3325 37.9585 9.57749C37.8342 9.57749 37.7098 9.57749 37.5855 9.57749C37.5553 9.19616 37.5864 8.82 37.6788 8.44901C37.741 8.51173 37.8031 8.57437 37.8652 8.63709C37.9429 8.44901 38.0207 8.26093 38.0983 8.07285C38.1451 6.9423 38.2228 5.81381 38.3314 4.6874C38.2664 3.79918 38.1421 2.92141 37.9585 2.05426C37.7728 2.07044 37.6174 2.00771 37.4923 1.86618C37.3319 2.00301 37.1455 2.08135 36.9329 2.10129C36.8434 2.45206 36.8124 2.81251 36.8397 3.18275C36.7154 3.18275 36.591 3.18275 36.4667 3.18275C36.4667 3.30811 36.4667 3.43356 36.4667 3.55891C36.3425 3.55891 36.2181 3.55891 36.0938 3.55891C36.0938 3.80972 36.0938 4.06043 36.0938 4.31123C35.9695 4.31123 35.8452 4.31123 35.7209 4.31123C35.7209 3.93507 35.7209 3.55891 35.7209 3.18275C35.5966 3.18275 35.4722 3.18275 35.3479 3.18275C35.2927 3.42979 35.2617 3.6806 35.2547 3.93507C35.0904 3.94852 34.935 3.91711 34.7885 3.84103C34.698 4.14789 34.5427 4.39869 34.3224 4.59336C34.6217 3.70796 34.9946 2.8616 35.4412 2.05426C35.881 1.3436 36.4404 0.732339 37.1194 0.220478C37.559 -0.0734925 37.9941 -0.0734925 38.4246 0.220478C39.2994 0.915248 39.8743 1.80863 40.1495 2.90063C40.1961 3.55816 40.2116 4.21644 40.1961 4.87548Z" fill="#E6A42E"/>
<path fill-rule="evenodd" clip-rule="evenodd" d="M36.5599 21.0504C36.4227 21.3108 36.3139 21.593 36.2336 21.8968C36.0976 22.7584 35.9111 23.6048 35.6742 24.4359C35.612 25.1882 35.612 25.9405 35.6742 26.6929C35.8339 27.1952 36.0359 27.6654 36.2802 28.1035C36.4608 28.4582 36.7249 28.7403 37.0727 28.9498C37.2261 28.7951 37.3815 28.6384 37.5389 28.4796C38.1384 27.3236 38.5579 26.1011 38.7975 24.8121C39.2723 23.1236 39.7695 21.4308 40.2893 19.7339C40.2893 19.7026 40.2893 19.6712 40.2893 19.6398C40.5227 19.0596 40.7403 18.464 40.9419 17.8531C41.1558 17.5832 41.2801 17.2697 41.3148 16.9127C41.6404 16.3812 41.9201 15.817 42.1539 15.2199C42.2161 15.1886 42.2782 15.1572 42.3404 15.1259C42.4832 15.0152 42.6231 14.8898 42.7599 14.7497C42.9534 14.8809 43.1243 14.8496 43.2727 14.6557C43.6648 14.1143 44.0067 13.5501 44.2983 12.963C44.6218 12.9432 44.6218 12.8335 44.2983 12.6338C44.4188 12.5878 44.5432 12.572 44.6712 12.5868C44.6712 12.4615 44.6712 12.336 44.6712 12.2107C44.7955 12.2107 44.9199 12.2107 45.0442 12.2107C45.0442 12.0853 45.0442 11.9598 45.0442 11.8345C45.3271 11.8365 45.5446 11.9618 45.6968 12.2107C45.7834 12.0988 45.8145 11.9735 45.79 11.8345C46.0387 11.8345 46.2872 11.8345 46.5359 11.8345C46.5359 11.333 46.5359 10.8314 46.5359 10.3298C46.7845 10.3298 47.0331 10.3298 47.2818 10.3298C47.2818 10.079 47.2818 9.82833 47.2818 9.57752C47.5304 9.57752 47.779 9.57752 48.0276 9.57752C48.0276 9.32672 48.0276 9.076 48.0276 8.8252C48.1519 8.8252 48.2763 8.8252 48.4006 8.8252C48.3851 8.4165 48.4007 8.00902 48.4472 7.60267C48.7943 7.39541 48.8409 7.1446 48.587 6.85035C48.8708 6.61337 49.1971 6.4566 49.566 6.38015C49.7058 6.52121 49.8457 6.66227 49.9855 6.80333C50.298 7.9952 50.3447 9.20202 50.1254 10.4239C49.9587 10.8838 49.8499 11.354 49.7991 11.8345C49.7248 12.1846 49.6315 12.5294 49.5194 12.8689C49.5194 12.9002 49.5194 12.9317 49.5194 12.963C49.2673 13.5053 49.0497 14.0695 48.8667 14.6557C48.8667 14.687 48.8667 14.7184 48.8667 14.7497C48.5203 15.5155 48.2094 16.2992 47.9344 17.1008C47.3206 18.5813 46.7612 20.086 46.2562 21.6147C45.9293 22.1959 45.7118 22.8227 45.6036 23.4955C45.546 23.5059 45.4994 23.5373 45.4637 23.5895C45.2944 24.0547 45.1545 24.5249 45.0442 25.0001C44.7855 25.5002 44.5991 26.0332 44.4848 26.5988C44.2451 27.0725 44.0586 27.5741 43.9254 28.1035C44.2435 28.0525 44.5232 27.9271 44.7645 27.7273C45.46 27.4312 46.1438 27.1177 46.8156 26.7869C48.0342 26.2821 49.1841 25.6552 50.2652 24.9061C50.2963 24.9061 50.3274 24.9061 50.3585 24.9061C51.3941 24.1733 52.4507 23.4837 53.5284 22.8372C54.697 22.1699 55.8471 21.4802 56.978 20.7683C57.6922 20.4397 58.3756 20.0635 59.0292 19.6398C60.203 18.984 61.4458 18.5138 62.7585 18.2292C63.1902 18.1607 63.6256 18.1293 64.0638 18.1352C64.1878 18.1352 64.3127 18.1352 64.4367 18.1352C64.9747 18.3223 65.5033 18.5574 66.0217 18.8405C66.3191 19.0312 66.568 19.2663 66.7675 19.5458C66.7815 19.838 66.7349 20.1201 66.6277 20.3922C66.361 20.8675 66.0972 21.3377 65.8352 21.8028C65.3653 22.3396 64.9299 22.9038 64.5299 23.4955C63.5622 24.5027 62.5366 25.4431 61.4532 26.3167C61.1726 26.4266 60.9237 26.5834 60.7074 26.7869C59.5587 27.3034 58.4399 27.8676 57.351 28.4796C55.8844 29.078 54.4863 29.7989 53.1555 30.6426C52.6893 30.8461 52.2542 31.0969 51.8502 31.3949C51.0876 31.788 50.404 32.2895 49.7991 32.8995C49.7302 32.8872 49.668 32.9029 49.6126 32.9466C48.9356 33.5819 48.314 34.2558 47.7479 34.9684C47.4972 35.1861 47.5284 35.3742 47.8412 35.5327C48.7816 35.6938 49.7139 35.6155 50.6382 35.2976C52.7203 35.2662 54.8029 35.2348 56.8848 35.2035C57.805 35.1157 58.7066 34.9746 59.5886 34.7803C59.651 34.7803 59.7126 34.7803 59.775 34.7803C61.4532 34.6915 63.1314 34.5974 64.8096 34.4982C65.1229 34.5091 65.4334 34.5404 65.742 34.5923C65.7727 34.5923 65.8044 34.5923 65.8352 34.5923C66.3713 34.8154 66.8999 35.0662 67.4202 35.3446C67.6421 35.5682 67.891 35.7563 68.166 35.9088C68.4178 36.2558 68.6667 36.6007 68.9119 36.9433C69.1049 37.754 68.9809 38.5063 68.539 39.2002C68.194 39.5489 67.8211 39.8781 67.4202 40.1877C66.789 40.5999 66.1363 40.9604 65.4623 41.2691C65.0278 41.3215 64.6232 41.4469 64.2502 41.6453C63.6321 41.7637 63.0112 41.8577 62.3856 41.9274C61.7003 41.8816 61.016 41.819 60.3344 41.7393C59.9503 41.7365 59.5774 41.6738 59.2156 41.5512C58.6152 41.26 57.9626 41.0563 57.2577 40.94C55.3306 40.8773 53.4041 40.8773 51.4773 40.94C51.3919 40.9661 51.3298 41.0131 51.2908 41.081C51.2908 41.1124 51.2908 41.1438 51.2908 41.1751C51.1976 41.1751 51.1043 41.1751 51.0111 41.1751C50.3657 41.1898 49.7441 41.2838 49.1464 41.4572C49.0539 41.441 48.9918 41.4724 48.96 41.5512C48.6745 41.5836 48.3948 41.6463 48.1209 41.7393C48.1364 41.7706 48.1519 41.8021 48.1675 41.8334C48.7323 42.3567 49.3073 42.8583 49.8923 43.338C50.0852 43.627 50.3338 43.8464 50.6382 43.9963C51.3592 44.7553 52.1362 45.445 52.969 46.0652C53.1051 46.2498 53.2605 46.4222 53.4352 46.5824C53.7354 46.8116 54.0461 47.0153 54.3675 47.1937C54.9717 47.7022 55.6243 48.1411 56.3254 48.5102C57.13 49.0102 57.9374 49.5119 58.7495 50.0149C59.0916 50.4224 59.4646 50.7985 59.8683 51.1434C60.2459 51.5871 60.588 52.0573 60.8938 52.554C61.5903 53.6146 62.2122 54.7116 62.7585 55.8454C62.8685 56.3196 62.9925 56.7898 63.1314 57.256C63.1314 57.3187 63.1314 57.3813 63.1314 57.4441C63.165 57.9239 63.2433 58.3941 63.3645 58.8547C63.4111 59.3867 63.427 59.9196 63.4111 60.4534C63.3748 60.6612 63.2498 60.7865 63.0382 60.8295C62.2159 60.8611 61.4085 60.7827 60.6141 60.5944C60.1881 60.3553 59.7527 60.1202 59.3089 59.8891C59.1271 59.8274 58.9406 59.7961 58.7495 59.7951C57.9458 59.3266 57.1692 58.8093 56.4186 58.2434C54.476 56.4876 52.5492 54.7165 50.6382 52.9301C50.1709 52.459 49.6737 52.0201 49.1464 51.6136C48.9016 51.3951 48.6529 51.1756 48.4006 50.9553C47.5754 50.3045 46.7363 49.6777 45.8833 49.0745C45.2488 48.4876 44.5341 48.0174 43.7389 47.6639C43.5907 47.5008 43.4042 47.3912 43.1795 47.3347C42.7144 47.2878 42.2482 47.2721 41.781 47.2877C41.8207 47.7017 41.9451 48.0778 42.1539 48.4162C42.1539 48.4475 42.1539 48.4789 42.1539 48.5102C42.3239 49.0056 42.4948 49.5073 42.6667 50.0149C42.7024 50.0672 42.749 50.0985 42.8066 50.1089C43.1213 50.9987 43.5253 51.8451 44.0186 52.648C44.5179 53.7801 45.0151 54.9086 45.5103 56.0335C45.8324 57.0012 46.2209 57.9416 46.6757 58.8547C46.9237 59.4638 47.1256 60.0906 47.2818 60.7355C47.3273 61.4198 47.4671 62.0781 47.7013 62.7103C47.9545 64.9523 48.0012 67.2719 47.8412 69.6693C47.9148 70.1836 47.7594 70.6068 47.375 70.9389C47.0182 71.0306 46.7074 70.9523 46.4427 70.7038C45.9805 70.4101 45.592 70.0339 45.2772 69.5753C44.8011 68.8334 44.3504 68.0811 43.9254 67.3183C43.5689 66.6125 43.196 65.9229 42.8066 65.2494C42.8226 65.1561 42.7915 65.0935 42.7133 65.0613C42.6597 64.7405 42.5354 64.4584 42.3404 64.215C42.2381 63.9154 42.1138 63.6332 41.9675 63.3686C41.8852 62.9837 41.7298 62.6389 41.5013 62.3342C41.2673 61.674 41.0187 61.0157 40.7554 60.3593C40.6168 59.8308 40.4303 59.3293 40.196 58.8547C40.2039 58.5585 40.1107 58.3077 39.9163 58.1024C39.6632 57.0176 39.3835 55.9518 39.0772 54.905C39.0772 54.8109 39.0772 54.7169 39.0772 54.6229C38.9749 53.886 38.8505 53.165 38.7043 52.4599C38.7043 52.3972 38.7043 52.3346 38.7043 52.2719C38.5748 50.7668 38.4349 49.2622 38.2847 47.7579C38.2652 47.6114 38.2185 47.486 38.1449 47.3818C38.0156 46.7542 37.767 46.19 37.399 45.689C37.3841 45.5336 37.322 45.4082 37.2126 45.3129C36.9775 44.5903 36.5269 44.0573 35.8607 43.7142C35.5593 43.8599 35.2796 44.048 35.0216 44.2784C34.7246 44.6914 34.4294 45.099 34.1359 45.5009C33.8464 45.7619 33.6289 46.0753 33.4832 46.4413C33.2825 46.6571 33.1271 46.9078 33.0171 47.1937C32.835 47.2996 32.6951 47.4562 32.5975 47.6639C32.5123 47.5553 32.4346 47.5711 32.3644 47.7109C32.5001 48.0451 32.438 48.3429 32.178 48.6043C32.0857 48.8806 32.0236 49.1627 31.9915 49.4506C31.9915 49.6074 31.9915 49.7641 31.9915 49.9208C31.2887 51.0752 30.7293 52.2977 30.3133 53.5884C30.0558 54.0215 29.8693 54.4917 29.7539 54.999C29.7539 55.0303 29.7539 55.0617 29.7539 55.0931C29.5456 55.4713 29.3902 55.8789 29.2877 56.3156C28.9555 57.0814 28.6448 57.8651 28.3554 58.6666C28.1337 59.0541 27.9472 59.4616 27.796 59.8891C27.4694 60.3595 27.1897 60.861 26.9569 61.3938C26.4681 62.0347 26.0019 62.6929 25.5584 63.3686C24.1032 64.962 22.6115 66.5293 21.0832 68.0706C20.724 68.2987 20.3822 68.5494 20.0576 68.823C19.1448 69.3699 18.1502 69.652 17.0741 69.6693C16.8686 69.4941 16.7442 69.2746 16.7012 69.011C16.6857 68.5085 16.7013 68.007 16.7478 67.5064C16.9294 66.7048 17.0692 65.8898 17.1674 65.0613C17.4316 64.1796 17.7269 63.3019 18.0531 62.4282C18.4354 61.6882 18.7929 60.9359 19.1253 60.1712C19.7118 59.0451 20.3024 57.9166 20.8967 56.7858C21.1454 56.3469 21.3939 55.9081 21.6426 55.4692C22.1768 54.6159 22.674 53.7382 23.1343 52.8361C23.4905 52.3696 23.8012 51.868 24.0667 51.3314C24.3488 50.9192 24.5974 50.4803 24.8125 50.0149C24.922 49.9195 24.9841 49.7942 24.999 49.6387C25.3185 49.214 25.5671 48.7438 25.7449 48.2281C26.4779 46.967 27.0373 45.6191 27.4231 44.1844C27.5126 44.0184 27.5438 43.8303 27.5163 43.6201C26.815 43.7097 26.1624 43.9291 25.5584 44.2784C24.9386 44.5104 24.3481 44.8081 23.787 45.1718C22.7493 45.8592 21.7547 46.5959 20.8035 47.3818C20.066 47.8433 19.3823 48.3762 18.7523 48.9804C18.2632 49.2542 17.8281 49.599 17.4471 50.0149C17.2374 50.0694 17.0821 50.1948 16.9809 50.391C16.5802 50.6697 16.2073 50.9832 15.8621 51.3314C14.8668 52.0841 13.8723 52.8364 12.8786 53.5884C12.6983 53.6458 12.5429 53.7398 12.4125 53.8705C11.6346 54.2157 10.8266 54.4664 9.98841 54.6229C9.21038 54.6009 8.44894 54.6636 7.70419 54.8109C6.37114 54.8472 5.08135 54.6435 3.83501 54.1997C3.7207 54.0459 3.59642 53.9049 3.46207 53.7765C3.37201 53.5982 3.34096 53.4101 3.36884 53.2123C3.36884 53.1495 3.36884 53.0869 3.36884 53.0242C3.5099 52.7398 3.69637 52.489 3.92824 52.2719C4.04963 52.1489 4.17391 52.1489 4.30117 52.2719C4.36569 52.2225 4.41231 52.1598 4.44102 52.0838C4.47207 52.1151 4.50321 52.1465 4.53426 52.1778C4.71066 52.0728 4.78832 51.916 4.76734 51.7076C4.9843 51.7314 5.17076 51.6687 5.32674 51.5195C5.48048 51.3173 5.65138 51.1293 5.83953 50.9553C5.88521 50.8337 5.90078 50.7082 5.88614 50.5791C6.01415 50.5939 6.13852 50.5782 6.25908 50.5321C6.49216 50.297 6.72524 50.0619 6.95833 49.8268C7.00401 49.7052 7.01958 49.5798 7.00494 49.4506C7.12922 49.4506 7.2536 49.4506 7.37788 49.4506C7.37788 49.3253 7.37788 49.1998 7.37788 49.0745C7.50216 49.0745 7.62653 49.0745 7.75081 49.0745C7.75081 48.9491 7.75081 48.8237 7.75081 48.6983C7.87509 48.6983 7.99946 48.6983 8.12374 48.6983C8.12374 48.573 8.12374 48.4475 8.12374 48.3222C8.24802 48.3222 8.3724 48.3222 8.49668 48.3222C8.49668 48.1968 8.49668 48.0713 8.49668 47.946C8.69284 47.9741 8.87931 47.9428 9.05608 47.852C8.68566 47.4343 8.77889 47.1365 9.33578 46.9586C9.49977 46.8835 9.65519 46.8992 9.80194 47.0056C9.67198 47.1172 9.68755 47.1799 9.84856 47.1937C10.1046 46.8238 10.3687 46.8238 10.641 47.1937C10.8939 47.0282 11.1736 46.9654 11.4801 47.0056C11.4801 46.8802 11.4801 46.7548 11.4801 46.6294C11.224 46.6589 10.9754 46.6275 10.7343 46.5354C10.8112 46.4521 10.9044 46.4208 11.014 46.4413C11.0836 46.0941 11.2079 46.0941 11.3869 46.4413C11.4735 46.3295 11.5046 46.2042 11.4801 46.0652C11.7631 46.0672 11.9806 46.1925 12.1328 46.4413C12.2 46.2358 12.2621 46.032 12.3192 45.8301C12.2882 45.7988 12.2571 45.7674 12.226 45.736C12.4635 45.7297 12.6655 45.6513 12.832 45.5009C12.8631 45.5637 12.8942 45.6263 12.9253 45.689C13.3602 45.7091 13.8108 45.6778 14.2771 45.595C14.4126 45.41 14.5058 45.2063 14.5568 44.9837C14.7912 44.9302 15.0088 44.9772 15.2095 45.1248C15.7011 45.021 15.9808 44.7231 16.0486 44.2314C16.5137 44.1845 16.9799 44.1688 17.4471 44.1844C17.4305 43.8666 17.4305 43.5689 17.4471 43.291C17.6769 43.3441 17.8944 43.4539 18.0997 43.6201C18.3526 43.4546 18.6323 43.3919 18.9388 43.4321C18.9388 43.1812 18.9388 42.9305 18.9388 42.6797C19.436 42.6797 19.9333 42.6797 20.4305 42.6797C20.4305 42.4289 20.4305 42.1782 20.4305 41.9274C20.9278 41.9274 21.4251 41.9274 21.9223 41.9274C21.963 41.6164 21.9008 41.3343 21.7358 41.081C21.8361 40.9723 21.9294 40.988 22.0155 41.1281C22.2309 41.1748 22.4484 41.1904 22.6682 41.1751C22.6682 40.9243 22.6682 40.6736 22.6682 40.4228C22.7924 40.4228 22.9168 40.4228 23.0411 40.4228C23.0411 40.2974 23.0411 40.172 23.0411 40.0466C23.1654 40.0466 23.2897 40.0466 23.414 40.0466C23.414 39.9212 23.414 39.7958 23.414 39.6704C23.2556 39.6855 23.1002 39.6699 22.9479 39.6234C23.2204 39.4311 23.4846 39.2273 23.7403 39.0122C23.7952 39.2344 23.9351 39.3284 24.1599 39.2943C24.1599 39.1689 24.1599 39.0435 24.1599 38.9181C24.2842 38.9181 24.4085 38.9181 24.5328 38.9181C24.5182 39.0472 24.5337 39.1727 24.5794 39.2943C24.6496 38.9255 24.8205 38.612 25.0922 38.3539C24.9722 38.1978 24.8479 38.0411 24.7193 37.8837C24.6039 38.2421 24.5418 38.2421 24.5328 37.8837C23.7843 37.8525 23.0385 37.8839 22.2952 37.9777C21.7717 38.1145 21.2434 38.2243 20.7102 38.3069C20.2319 38.5263 19.7347 38.6987 19.2185 38.8241C19.1307 38.8139 19.053 38.7826 18.9854 38.73C18.8834 38.8784 18.8057 39.0352 18.7523 39.2002C18.4183 39.3222 18.1075 39.4789 17.82 39.6704C17.3523 39.7544 16.9172 39.9112 16.5147 40.1406C15.9935 40.2122 15.4963 40.3377 15.023 40.5168C14.5583 40.5897 14.0922 40.6524 13.6245 40.7049C11.2969 40.9099 8.96611 40.9412 6.63201 40.7989C5.78452 40.7766 4.94542 40.6826 4.11471 40.5168C4.08366 40.5168 4.05252 40.5168 4.02147 40.5168C3.30526 40.298 2.59044 40.0472 1.87711 39.7645C1.30326 39.4588 0.774902 39.0827 0.292139 38.636C0.0571913 38.2017 -0.0360421 37.7315 0.0124393 37.2254C0.165062 37.0546 0.304912 36.8665 0.431989 36.6611C0.77369 36.3885 1.10001 36.1064 1.41094 35.8148C2.22356 35.405 3.03152 34.9975 3.83501 34.5923C4.5709 34.324 5.31677 34.0732 6.07261 33.8399C6.1348 33.8399 6.19689 33.8399 6.25908 33.8399C6.65905 33.8066 7.03198 33.7125 7.37788 33.5578C9.92166 33.3838 12.47 33.3211 15.023 33.3697C15.1473 33.3697 15.2717 33.3697 15.3959 33.3697C16.4106 33.7004 17.4673 33.8257 18.5659 33.7459C19.2807 33.7302 19.9954 33.7146 20.7102 33.6989C20.9498 33.6144 21.1673 33.5047 21.3629 33.3697C21.5066 33.3074 21.6621 33.2447 21.829 33.1817C21.7598 33.1175 21.6977 33.0548 21.6426 32.9936C21.2844 32.7509 20.9114 32.5158 20.5238 32.2883C20.0448 32.2034 19.6098 32.0154 19.2185 31.724C18.7759 31.5343 18.3098 31.4247 17.82 31.3949C17.102 31.0234 16.3251 30.7883 15.4892 30.6896C15.0467 30.4624 14.5805 30.3056 14.0907 30.2194C13.9411 30.1031 13.7857 29.9934 13.6245 29.8902C13.644 29.8351 13.6751 29.7881 13.7177 29.7492C13.3139 29.8267 12.9099 29.811 12.5057 29.7022C12.4747 29.7022 12.4435 29.7022 12.4125 29.7022C11.8588 29.3184 11.2682 28.9892 10.641 28.7147C10.3943 28.668 10.1457 28.6523 9.89518 28.6677C9.54695 28.5924 9.20516 28.4984 8.86961 28.3856C8.85926 28.3276 8.82821 28.2806 8.77638 28.2445C8.49472 28.1647 8.21502 28.0863 7.93728 28.0094C7.60518 27.7722 7.23225 27.6154 6.81848 27.5392C5.90581 27.0946 5.00453 26.6244 4.11471 26.1286C3.11142 25.5823 2.2878 24.83 1.64402 23.8717C1.45467 23.4826 1.39248 23.0751 1.45756 22.6491C1.52254 22.4532 1.63134 22.2964 1.78387 22.1789C1.942 22.1615 2.06628 22.0831 2.15681 21.9438C2.31857 21.8826 2.47399 21.8982 2.62297 21.9909C2.73448 21.9583 2.73448 21.9113 2.62297 21.8498C2.71136 21.8044 2.80459 21.7888 2.90267 21.8028C2.90267 21.9909 2.90267 22.1789 2.90267 22.367C3.27561 22.367 3.64854 22.367 4.02147 22.367C3.99649 22.1207 4.02753 21.8856 4.11471 21.6617C4.70441 21.6147 5.29486 21.5991 5.88614 21.6147C5.88614 21.8655 5.88614 22.1162 5.88614 22.367C7.2536 22.367 8.62096 22.367 9.98841 22.367C9.98841 22.6178 9.98841 22.8685 9.98841 23.1193C10.2371 23.1193 10.4856 23.1193 10.7343 23.1193C10.7343 23.2447 10.7343 23.3701 10.7343 23.4955C10.9829 23.4955 11.2315 23.4955 11.4801 23.4955C11.4801 23.3701 11.4801 23.2447 11.4801 23.1193C11.7288 23.1193 11.9774 23.1193 12.226 23.1193C12.226 23.3701 12.226 23.6209 12.226 23.8717C12.7232 23.8717 13.2205 23.8717 13.7177 23.8717C13.7177 24.1225 13.7177 24.3732 13.7177 24.624C14.0907 24.624 14.4636 24.624 14.8365 24.624C14.8365 24.8748 14.8365 25.1255 14.8365 25.3763C15.0852 25.3763 15.3338 25.3763 15.5824 25.3763C15.5824 25.6271 15.5824 25.8778 15.5824 26.1286C16.2004 26.1123 16.5423 26.4257 16.608 27.069C16.7331 26.9275 16.8884 26.8648 17.0741 26.8809C17.0741 27.1318 17.0741 27.3825 17.0741 27.6333C17.3228 27.6333 17.5714 27.6333 17.82 27.6333C17.82 27.8841 17.82 28.1348 17.82 28.3856C17.9443 28.3856 18.0687 28.3856 18.1929 28.3856C18.2551 28.6364 18.3172 28.8871 18.3794 29.1379C18.5628 29.1154 18.7338 29.1468 18.8922 29.232C18.9385 29.4492 18.954 29.6686 18.9388 29.8902C19.1875 29.8902 19.436 29.8902 19.6847 29.8902C19.6847 30.141 19.6847 30.3918 19.6847 30.6426C19.809 30.6426 19.9333 30.6426 20.0576 30.6426C20.0311 30.9507 20.0622 31.2485 20.1508 31.5359C20.4773 31.4469 20.8191 31.3999 21.1764 31.3949C21.1466 31.7144 21.1776 32.028 21.2696 32.3353C21.5576 32.0867 21.7752 32.1495 21.9223 32.5234C21.8926 32.6312 21.8305 32.7097 21.7358 32.7585C21.8692 32.8022 21.9779 32.8806 22.0621 32.9936C22.1007 32.9506 22.1473 32.9192 22.202 32.8995C22.2792 32.9856 22.3724 33.0482 22.4817 33.0876C22.7746 32.9354 23.0854 32.8727 23.414 32.8995C23.414 32.398 23.414 31.8964 23.414 31.3949C23.7004 31.4247 23.9801 31.3934 24.2531 31.3008C24.2086 31.2089 24.1466 31.1305 24.0667 31.0657C23.4609 30.992 22.9015 30.8039 22.3884 30.5015C22.5625 30.4346 22.7024 30.4817 22.808 30.6426C22.9063 30.4306 23.0461 30.3993 23.2276 30.5485C24.2799 30.4722 25.3366 30.4251 26.3975 30.4075C26.573 30.3888 26.7283 30.3418 26.8637 30.2664C26.9143 30.2608 26.9453 30.2294 26.9569 30.1724C26.7941 30.0076 26.6076 29.8822 26.3975 29.7962C25.7987 29.3206 25.1772 28.8661 24.5328 28.4326C24.355 28.3271 24.1686 28.2488 23.9734 28.1975C23.2461 27.752 22.5314 27.2817 21.829 26.7869C21.3354 26.4145 20.8692 26.007 20.4305 25.5644C20.0887 25.1569 19.7157 24.7807 19.3117 24.4359C17.6329 21.9591 15.9547 19.4826 14.2771 17.0067C13.6467 15.8304 13.1495 14.6078 12.7854 13.3391C12.7668 13.0448 12.7047 12.7627 12.5989 12.4928C12.4284 11.4669 12.3818 10.4324 12.4591 9.38944C12.6004 8.6358 13.0511 8.29096 13.811 8.355C13.8732 8.355 13.9353 8.355 13.9974 8.355C14.4795 8.55916 14.9767 8.74724 15.4892 8.91924C15.6604 9.1156 15.8779 9.24095 16.1418 9.2954C16.4806 9.62304 16.8536 9.90516 17.2606 10.1418C17.5093 10.4552 17.789 10.7373 18.0997 10.9881C18.7201 11.8017 19.3727 12.5853 20.0576 13.3391C21.186 14.8332 22.336 16.3065 23.5073 17.759C23.7513 18.2211 24.0622 18.6285 24.4396 18.9816C24.7463 19.507 25.1193 19.9772 25.5584 20.3922C25.8651 20.9176 26.2381 21.3878 26.6772 21.8028C26.8488 22.1491 27.0663 22.4626 27.3298 22.7432C27.8365 23.4845 28.3648 24.2055 28.9148 24.9061C28.9638 25.0688 29.0571 25.1942 29.1945 25.2823C29.4712 25.83 29.9062 26.0651 30.4998 25.9876C30.8477 25.2954 31.0964 24.5588 31.2456 23.7776C31.2456 23.6836 31.2456 23.5895 31.2456 23.4955C31.3172 23.4237 31.3638 23.3297 31.3855 23.2134C31.5159 22.119 31.547 21.0219 31.4787 19.922C31.4597 19.6119 31.382 19.3298 31.2456 19.0756C31.2456 19.0129 31.2456 18.9502 31.2456 18.8875C31.2434 18.3775 31.1813 17.8759 31.0592 17.3829C30.9778 15.0049 31.2885 12.6852 31.9915 10.4239C32.368 9.56812 32.7099 8.69034 33.0171 7.79075C33.35 7.03448 33.6297 6.25084 33.8562 5.43975C33.9978 5.15941 34.1531 4.87729 34.3223 4.59338C34.5426 4.39872 34.698 4.14791 34.7885 3.84106C34.935 3.91714 35.0904 3.94855 35.2547 3.9351C35.2616 3.68063 35.2927 3.42982 35.3479 3.18278C35.4722 3.18278 35.5965 3.18278 35.7208 3.18278C35.7208 3.55894 35.7208 3.9351 35.7208 4.31126C35.8451 4.31126 35.9695 4.31126 36.0938 4.31126C36.0938 4.06045 36.0938 3.80974 36.0938 3.55894C36.218 3.55894 36.3424 3.55894 36.4667 3.55894C36.4667 3.43358 36.4667 3.30813 36.4667 3.18278C36.591 3.18278 36.7153 3.18278 36.8396 3.18278C36.8123 2.81254 36.8434 2.45208 36.9329 2.10131C37.1454 2.08138 37.3319 2.00304 37.4923 1.86621C37.6174 2.00774 37.7727 2.07047 37.9584 2.05429C38.1421 2.92144 38.2664 3.79921 38.3314 4.68742C38.2227 5.81384 38.1451 6.94232 38.0983 8.07288C38.0206 8.26096 37.9429 8.44904 37.8652 8.63712C37.803 8.57439 37.7409 8.51176 37.6787 8.44904C37.5863 8.82003 37.5553 9.19619 37.5855 9.57752C37.7098 9.57752 37.8341 9.57752 37.9584 9.57752C37.9893 10.3325 37.9582 11.0848 37.8652 11.8345C37.803 11.333 37.7409 10.8314 37.6787 10.3298C37.5887 10.5081 37.5576 10.6962 37.5855 10.8941C37.2004 10.8973 36.8275 10.96 36.4667 11.0822C36.5311 11.7188 36.6555 12.3458 36.8396 12.963C36.6555 13.5802 36.5311 14.2071 36.4667 14.8438C36.3424 14.8438 36.218 14.8438 36.0938 14.8438C36.0421 15.3982 36.1042 15.9311 36.2802 16.4425C36.1559 16.6305 36.0316 16.8186 35.9073 17.0067C35.7305 17.0976 35.5441 17.1289 35.3479 17.1008C35.3479 16.9754 35.3479 16.8499 35.3479 16.7246C35.0992 16.7246 34.8507 16.7246 34.602 16.7246C34.602 17.1008 34.602 17.4769 34.602 17.8531C34.8507 17.8531 35.0992 17.8531 35.3479 17.8531C35.3479 18.8562 35.3479 19.8592 35.3479 20.8624C35.2236 20.8624 35.0992 20.8624 34.975 20.8624C34.975 21.1132 34.975 21.3639 34.975 21.6147C34.8507 21.6147 34.7263 21.6147 34.602 21.6147C34.602 21.3639 34.602 21.1132 34.602 20.8624C34.3534 20.8624 34.1048 20.8624 33.8562 20.8624C33.8853 20.604 33.8543 20.3532 33.7629 20.11C33.6699 20.8597 33.6388 21.6121 33.6697 22.367C33.9804 22.367 34.2913 22.367 34.602 22.367C34.6223 23.3751 34.5602 24.3782 34.4156 25.3763C34.6026 26.3812 34.789 27.3843 34.975 28.3856C35.2236 28.3856 35.4722 28.3856 35.7208 28.3856C35.8033 27.8587 35.6945 27.3885 35.3945 26.975C35.3789 26.7086 35.3635 26.4421 35.3479 26.1756C35.397 25.7543 35.397 25.3468 35.3479 24.9531C35.4131 24.6811 35.5063 24.4146 35.6276 24.1538C35.5344 24.0754 35.4411 23.997 35.3479 23.9187C35.7208 23.8246 35.7208 23.7306 35.3479 23.6366C35.9281 23.1041 36.1612 22.4301 36.0471 21.6147C36.1906 21.5163 36.2061 21.391 36.0938 21.2385C36.221 20.9411 36.3143 20.6275 36.3735 20.2981C36.4281 20.3178 36.4747 20.3492 36.5133 20.3922C36.5596 20.6094 36.5751 20.8288 36.5599 21.0504Z" fill="#E6A42E"/>
<path fill-rule="evenodd" clip-rule="evenodd" d="M49.986 6.28609C50.3507 7.41251 50.4595 8.57231 50.3123 9.76559C50.2476 10.3711 50.1388 10.9668 49.986 11.5524C49.9238 11.6464 49.8617 11.7404 49.7995 11.8345C49.8503 11.354 49.9591 10.8838 50.1258 10.4239C50.3451 9.202 50.2985 7.99518 49.986 6.80332C49.8461 6.66226 49.7063 6.5212 49.5664 6.38013C49.1976 6.45659 48.8713 6.61335 48.5875 6.85034C48.8413 7.14459 48.7947 7.39539 48.4476 7.60266C48.4011 8.00901 48.3855 8.41649 48.401 8.82518C48.2767 8.82518 48.1523 8.82518 48.0281 8.82518C48.0281 9.07599 48.0281 9.3267 48.0281 9.57751C47.7794 9.57751 47.5308 9.57751 47.2822 9.57751C47.2822 9.82831 47.2822 10.079 47.2822 10.3298C47.0335 10.3298 46.785 10.3298 46.5363 10.3298C46.5363 10.8313 46.5363 11.333 46.5363 11.8345C46.2877 11.8345 46.0391 11.8345 45.7905 11.8345C45.8149 11.9735 45.7838 12.0988 45.6972 12.2106C45.5451 11.9618 45.3276 11.8365 45.0446 11.8345C45.0446 11.9598 45.0446 12.0853 45.0446 12.2106C44.9203 12.2106 44.7959 12.2106 44.6717 12.2106C44.6717 12.336 44.6717 12.4614 44.6717 12.5868C44.5436 12.572 44.4193 12.5877 44.2987 12.6338C44.6222 12.8335 44.6222 12.9432 44.2987 12.963C44.0071 13.5501 43.6652 14.1143 43.2732 14.6557C43.1247 14.8496 42.9538 14.8809 42.7604 14.7497C42.6235 14.8898 42.4837 15.0152 42.3408 15.1259C42.6292 14.5125 42.94 13.9169 43.2732 13.3391C44.0163 12.2438 44.7622 11.1468 45.5108 10.0477C45.7611 9.79474 45.9786 9.51262 46.1634 9.20135C46.8677 8.22483 47.6135 7.26872 48.401 6.33311C48.7607 5.95046 49.1958 5.82511 49.7063 5.95695C49.8191 6.05466 49.9123 6.16441 49.986 6.28609Z" fill="#E6A42E"/>
<path fill-rule="evenodd" clip-rule="evenodd" d="M10.6414 21.2385C10.7035 21.2385 10.7656 21.2385 10.8278 21.2385C11.0691 21.4353 11.3488 21.5606 11.6669 21.6147C11.8542 21.7619 12.0718 21.8559 12.3196 21.8968C12.9997 22.2398 13.6834 22.5846 14.3707 22.9313C14.8985 23.3068 15.4268 23.6829 15.9557 24.0598C16.4218 24.5927 16.919 25.0942 17.4474 25.5644C17.9162 26.0685 18.3823 26.57 18.8459 27.069C19.0634 27.3512 19.3121 27.602 19.5918 27.8214C19.8155 28.1414 20.0952 28.3922 20.4309 28.5737C20.8484 29.0577 21.3458 29.4339 21.9226 29.7022C22.2536 29.9472 22.6265 30.1196 23.0414 30.2194C24.3152 30.2664 25.5894 30.2821 26.864 30.2664C26.7286 30.3418 26.5733 30.3889 26.3978 30.4075C25.3369 30.4252 24.2802 30.4722 23.2279 30.5485C23.0464 30.3993 22.9066 30.4306 22.8083 30.6426C22.7027 30.4817 22.5628 30.4347 22.3888 30.5015C22.9018 30.804 23.4612 30.992 24.067 31.0658C24.1469 31.1306 24.209 31.2089 24.2534 31.3009C23.9804 31.3934 23.7007 31.4247 23.4143 31.3949C23.4143 31.8964 23.4143 32.398 23.4143 32.8996C23.0857 32.8727 22.7749 32.9354 22.482 33.0876C22.3727 33.0482 22.2795 32.9856 22.2023 32.8996C22.1477 32.9192 22.101 32.9506 22.0624 32.9936C21.9782 32.8806 21.8695 32.8022 21.7361 32.7585C21.8308 32.7097 21.8929 32.6313 21.9226 32.5234C21.7755 32.1495 21.558 32.0868 21.27 32.3353C21.1779 32.028 21.1469 31.7145 21.1767 31.3949C20.8194 31.3999 20.4776 31.4469 20.1512 31.536C20.0625 31.2485 20.0314 30.9508 20.0579 30.6426C19.9336 30.6426 19.8093 30.6426 19.685 30.6426C19.685 30.3918 19.685 30.1411 19.685 29.8903C19.4363 29.8903 19.1878 29.8903 18.9391 29.8903C18.9543 29.6686 18.9388 29.4492 18.8925 29.232C18.7341 29.1468 18.5631 29.1155 18.3797 29.1379C18.3175 28.8871 18.2554 28.6364 18.1933 28.3856C18.069 28.3856 17.9446 28.3856 17.8203 28.3856C17.8203 28.1348 17.8203 27.8841 17.8203 27.6333C17.5717 27.6333 17.3231 27.6333 17.0745 27.6333C17.0745 27.3825 17.0745 27.1318 17.0745 26.881C16.8887 26.8648 16.7334 26.9275 16.6083 27.069C16.5426 26.4257 16.2007 26.1123 15.5827 26.1286C15.5827 25.8778 15.5827 25.6271 15.5827 25.3763C15.3341 25.3763 15.0855 25.3763 14.8369 25.3763C14.8369 25.1255 14.8369 24.8748 14.8369 24.624C14.4639 24.624 14.091 24.624 13.7181 24.624C13.7181 24.3732 13.7181 24.1225 13.7181 23.8717C13.2208 23.8717 12.7235 23.8717 12.2263 23.8717C12.2263 23.6209 12.2263 23.3702 12.2263 23.1194C11.9777 23.1194 11.7291 23.1194 11.4805 23.1194C11.4805 23.2447 11.4805 23.3702 11.4805 23.4955C11.2318 23.4955 10.9832 23.4955 10.7346 23.4955C10.7346 23.3702 10.7346 23.2447 10.7346 23.1194C10.4859 23.1194 10.2374 23.1194 9.98872 23.1194C9.98872 22.8685 9.98872 22.6178 9.98872 22.367C8.62126 22.367 7.2539 22.367 5.88645 22.367C5.88645 22.1162 5.88645 21.8655 5.88645 21.6147C5.29516 21.5991 4.70472 21.6147 4.11501 21.6617C4.02784 21.8856 3.99679 22.1207 4.02178 22.367C3.64885 22.367 3.27591 22.367 2.90298 22.367C2.90298 22.1789 2.90298 21.9909 2.90298 21.8028C2.8049 21.7888 2.71167 21.8044 2.62328 21.8498C2.73479 21.9113 2.73479 21.9583 2.62328 21.9909C2.47429 21.8982 2.31887 21.8826 2.15711 21.9438C2.06658 22.0831 1.9423 22.1616 1.78418 22.1789C1.99787 21.9152 2.24652 21.6958 2.53005 21.5207C3.28971 21.2861 4.03558 21.0354 4.76765 20.7683C4.79869 20.7683 4.82983 20.7683 4.86088 20.7683C6.81552 20.568 8.74237 20.7248 10.6414 21.2385Z" fill="#E6A42E"/>
<path fill-rule="evenodd" clip-rule="evenodd" d="M9.89551 28.6677C10.146 28.6523 10.3947 28.668 10.6414 28.7147C11.2686 28.9892 11.8591 29.3184 12.4128 29.7021C12.1693 29.6202 11.9206 29.5576 11.6669 29.5141C11.0685 29.2501 10.478 28.968 9.89551 28.6677Z" fill="#E6A42E"/>
<path fill-rule="evenodd" clip-rule="evenodd" d="M12.5059 29.7022C12.91 29.811 13.314 29.8267 13.7179 29.7492C13.6753 29.7881 13.6441 29.8351 13.6247 29.8902C13.7859 29.9934 13.9413 30.1031 14.0908 30.2194C14.5807 30.3056 15.0468 30.4624 15.4893 30.6896C16.3253 30.7883 17.1022 31.0234 17.8202 31.3949C17.6337 31.3949 17.4472 31.3949 17.2608 31.3949C16.4785 31.0903 15.6705 30.8395 14.8367 30.6426C14.3293 30.4196 13.8011 30.2315 13.2517 30.0783C12.9881 29.9697 12.7394 29.8443 12.5059 29.7022Z" fill="#E6A42E"/>
<path fill-rule="evenodd" clip-rule="evenodd" d="M40.3824 32.3353C39.9228 32.0252 39.4255 31.7901 38.8906 31.63C38.4555 31.5673 38.0205 31.5673 37.5854 31.63C36.9746 31.8094 36.353 31.9192 35.7207 31.9591C36.7906 31.5432 37.9094 31.4021 39.0771 31.536C39.5928 31.6856 40.0279 31.952 40.3824 32.3353Z" fill="#172624"/>
<path fill-rule="evenodd" clip-rule="evenodd" d="M15.0231 33.3697C12.4701 33.3211 9.92171 33.3838 7.37793 33.5578C7.7062 33.4759 8.04809 33.3975 8.4035 33.3227C10.6259 33.2446 12.8325 33.2603 15.0231 33.3697Z" fill="#E6A42E"/>
<path fill-rule="evenodd" clip-rule="evenodd" d="M40.3828 32.3353C41.0783 33.0223 41.6533 33.806 42.1076 34.6863C42.3908 35.4156 42.4063 36.1366 42.1542 36.8492C42.1542 36.285 42.1542 35.7208 42.1542 35.1565C42.061 35.1565 41.9678 35.1565 41.8745 35.1565C42.0015 34.6593 41.8151 34.4085 41.3151 34.4042C41.3013 34.3053 41.3167 34.2112 41.3618 34.1221C41.4012 34.259 41.4789 34.306 41.5948 34.2631C41.5205 33.812 41.2564 33.5456 40.8024 33.4638C40.8205 33.3109 40.8205 33.1541 40.8024 32.9936C40.6025 32.8087 40.4626 32.5892 40.3828 32.3353Z" fill="#172624"/>
<path fill-rule="evenodd" clip-rule="evenodd" d="M15.3955 33.3697C16.9712 33.6234 18.5561 33.7017 20.1504 33.6048C20.2657 33.583 20.359 33.536 20.4301 33.4638C20.7434 33.4529 21.0541 33.4216 21.3624 33.3697C21.1668 33.5047 20.9493 33.6144 20.7098 33.6989C19.995 33.7146 19.2803 33.7302 18.5654 33.7459C17.4669 33.8257 16.4102 33.7004 15.3955 33.3697Z" fill="#E6A42E"/>
<path fill-rule="evenodd" clip-rule="evenodd" d="M40.3829 32.3353C40.4627 32.5892 40.6026 32.8087 40.8025 32.9936C40.8207 33.1541 40.8207 33.3109 40.8025 33.4638C41.2565 33.5456 41.5207 33.812 41.595 34.2632C41.479 34.306 41.4013 34.259 41.3619 34.1221C41.3169 34.2112 41.3014 34.3053 41.3153 34.4042C41.8152 34.4085 42.0017 34.6593 41.8747 35.1565C41.9679 35.1565 42.0611 35.1565 42.1544 35.1565C42.1544 35.7208 42.1544 36.285 42.1544 36.8493C42.0116 37.2317 41.8407 37.6079 41.6416 37.9777C41.3546 38.2767 41.0904 38.5901 40.8491 38.9182C40.121 39.4735 39.313 39.8809 38.425 40.1407C37.7891 40.2729 37.1675 40.461 36.5604 40.7049C36.2783 40.5945 36.0297 40.6572 35.8145 40.893C35.6902 40.8617 35.5658 40.8303 35.4416 40.799C35.3662 40.8279 35.304 40.8749 35.2551 40.94C34.9132 40.9557 34.5714 40.9713 34.2295 40.987C33.6698 40.9853 33.1414 40.9383 32.6446 40.846C32.1648 40.6511 31.7298 40.3847 31.3393 40.0466C30.8695 39.573 30.4344 39.0713 30.034 38.542C29.8187 38.126 29.6477 37.6873 29.5212 37.2254C29.4591 36.9433 29.4591 36.6612 29.5212 36.3791C29.5472 36.2929 29.5938 36.2303 29.6611 36.191C29.9895 35.9021 30.3624 35.6827 30.7799 35.5327C30.9477 35.2376 31.072 34.9242 31.1528 34.5923C32.3775 33.2061 33.9003 32.3285 35.7213 31.9592C36.3536 31.9192 36.9752 31.8095 37.5859 31.63C38.0211 31.5673 38.4561 31.5673 38.8912 31.63C39.4261 31.7902 39.9234 32.0253 40.3829 32.3353Z" fill="#172624"/>
<path fill-rule="evenodd" clip-rule="evenodd" d="M31.1519 34.5923C31.0711 34.9241 30.9468 35.2376 30.779 35.5327C30.3615 35.6827 29.9885 35.902 29.6602 36.1909C30.0897 35.6007 30.587 35.0678 31.1519 34.5923Z" fill="#172624"/>
<path fill-rule="evenodd" clip-rule="evenodd" d="M3.92871 52.2719C5.33439 49.851 7.26124 47.9702 9.70918 46.6294C10.23 46.3293 10.7582 46.0471 11.2941 45.7831C12.4612 45.2414 13.6111 44.6772 14.7438 44.0904C15.6847 43.6628 16.5859 43.1612 17.4476 42.5857C17.7115 42.5313 17.929 42.4059 18.1002 42.2095C19.0319 41.8028 19.902 41.3012 20.7107 40.7049C20.7418 40.7049 20.7729 40.7049 20.804 40.7049C21.3802 40.4302 21.9085 40.0855 22.3889 39.6705C22.5017 39.6298 22.595 39.5671 22.6686 39.4824C23.2445 39.1441 23.7728 38.7366 24.2536 38.2599C24.3448 38.2306 24.407 38.1679 24.4401 38.0718C23.8314 37.9627 23.241 37.994 22.6686 38.1658C21.3013 38.2809 19.996 38.6257 18.7528 39.2003C18.8061 39.0352 18.8839 38.8785 18.9859 38.7301C19.0535 38.7826 19.1312 38.8139 19.219 38.8241C19.7351 38.6987 20.2323 38.5264 20.7107 38.3069C21.2438 38.2243 21.7722 38.1146 22.2957 37.9777C23.0389 37.8839 23.7848 37.8526 24.5333 37.8837C24.5422 38.2421 24.6043 38.2421 24.7198 37.8837C24.8484 38.0411 24.9727 38.1978 25.0927 38.3539C24.821 38.612 24.6501 38.9256 24.5799 39.2943C24.5342 39.1727 24.5186 39.0473 24.5333 38.9181C24.409 38.9181 24.2846 38.9181 24.1604 38.9181C24.1604 39.0435 24.1604 39.1689 24.1604 39.2943C23.9356 39.3284 23.7957 39.2344 23.7408 39.0122C23.4851 39.2273 23.2208 39.4311 22.9483 39.6234C23.1007 39.6699 23.2561 39.6855 23.4145 39.6705C23.4145 39.7958 23.4145 39.9213 23.4145 40.0466C23.2902 40.0466 23.1658 40.0466 23.0416 40.0466C23.0416 40.172 23.0416 40.2974 23.0416 40.4228C22.9173 40.4228 22.7929 40.4228 22.6686 40.4228C22.6686 40.6736 22.6686 40.9243 22.6686 41.1751C22.4489 41.1904 22.2314 41.1748 22.016 41.1281C21.9298 40.9881 21.8366 40.9724 21.7363 41.0811C21.9013 41.3343 21.9635 41.6164 21.9228 41.9274C21.4255 41.9274 20.9282 41.9274 20.431 41.9274C20.431 42.1782 20.431 42.4289 20.431 42.6798C19.9338 42.6798 19.4365 42.6798 18.9393 42.6798C18.9393 42.9306 18.9393 43.1813 18.9393 43.4321C18.6327 43.3919 18.353 43.4546 18.1002 43.6202C17.8949 43.4539 17.6774 43.3441 17.4476 43.291C17.431 43.5689 17.431 43.8666 17.4476 44.1844C16.9804 44.1688 16.5142 44.1845 16.049 44.2314C15.9813 44.7232 15.7016 45.021 15.2099 45.1248C15.0093 44.9773 14.7917 44.9302 14.5573 44.9837C14.5063 45.2063 14.4131 45.41 14.2776 45.595C13.8113 45.6779 13.3607 45.7092 12.9257 45.689C12.8947 45.6263 12.8635 45.5637 12.8325 45.501C12.666 45.6513 12.4639 45.7298 12.2265 45.7361C12.2575 45.7674 12.2887 45.7988 12.3197 45.8301C12.2626 46.032 12.2005 46.2358 12.1332 46.4414C11.9811 46.1925 11.7636 46.0672 11.4806 46.0652C11.505 46.2042 11.474 46.3296 11.3874 46.4414C11.2084 46.0941 11.0841 46.0941 11.0144 46.4414C10.9049 46.4208 10.8117 46.4521 10.7347 46.5354C10.9758 46.6276 11.2245 46.6589 11.4806 46.6294C11.4806 46.7548 11.4806 46.8803 11.4806 47.0056C11.1741 46.9655 10.8944 47.0282 10.6415 47.1937C10.3692 46.8238 10.105 46.8238 9.84903 47.1937C9.68802 47.18 9.67245 47.1172 9.80241 47.0056C9.65566 46.8992 9.50024 46.8835 9.33625 46.9586C8.77936 47.1365 8.68613 47.4343 9.05655 47.852C8.87978 47.9428 8.69331 47.9741 8.49715 47.946C8.49715 48.0714 8.49715 48.1968 8.49715 48.3222C8.37287 48.3222 8.24849 48.3222 8.12421 48.3222C8.12421 48.4475 8.12421 48.573 8.12421 48.6983C7.99993 48.6983 7.87556 48.6983 7.75128 48.6983C7.75128 48.8237 7.75128 48.9491 7.75128 49.0745C7.627 49.0745 7.50263 49.0745 7.37835 49.0745C7.37835 49.1999 7.37835 49.3253 7.37835 49.4507C7.25407 49.4507 7.12969 49.4507 7.00541 49.4507C7.02005 49.5798 7.00448 49.7052 6.9588 49.8268C6.72571 50.0619 6.49263 50.297 6.25955 50.5321C6.13899 50.5782 6.01462 50.5939 5.88661 50.5791C5.90125 50.7083 5.88568 50.8337 5.84 50.9553C5.65185 51.1293 5.48095 51.3174 5.32721 51.5195C5.17123 51.6687 4.98477 51.7314 4.76781 51.7076C4.78879 51.916 4.71113 52.0728 4.53473 52.1778C4.50368 52.1465 4.47254 52.1151 4.44149 52.0838C4.41278 52.1598 4.36616 52.2225 4.30164 52.2719C4.17438 52.149 4.0501 52.149 3.92871 52.2719Z" fill="#E6A42E"/>
<path fill-rule="evenodd" clip-rule="evenodd" d="M31.3389 40.0466C31.7293 40.3847 32.1644 40.6511 32.6441 40.8459C33.141 40.9383 33.6693 40.9853 34.2291 40.987C34.571 40.9713 34.9128 40.9557 35.2547 40.94C35.3036 40.8749 35.3658 40.8279 35.4411 40.7989C35.5654 40.8302 35.6898 40.8616 35.8141 40.893C36.0293 40.6572 36.2779 40.5945 36.5599 40.7049C37.1671 40.4609 37.7887 40.2729 38.4246 40.1406C37.5504 40.5132 36.6491 40.8424 35.7208 41.1281C33.9909 41.8124 32.5302 41.4519 31.3389 40.0466Z" fill="#172624"/>
<path fill-rule="evenodd" clip-rule="evenodd" d="M33.4829 46.4413C33.7463 46.907 33.9483 47.4086 34.089 47.946C34.4045 49.3803 34.6842 50.8222 34.9281 52.2718C34.9771 59.6387 34.9771 67.0052 34.9281 74.3713C35.5253 80.4134 36.0381 86.4631 36.4664 92.5211C36.4144 93.3054 36.2279 94.0578 35.907 94.7781C36.0341 95.2474 36.1739 95.7176 36.3266 96.1887C36.4612 96.3448 36.6322 96.4069 36.8393 96.3768C36.9482 98.2595 37.0881 100.14 37.2589 102.019C37.6318 104.715 38.0048 107.411 38.3777 110.107C38.8378 114.677 39.3817 119.222 40.0093 123.743C39.9938 124.37 40.0093 124.997 40.0559 125.623C40.0849 125.961 40.1626 126.274 40.289 126.564C40.301 126.726 40.3321 126.882 40.3822 127.034C40.3822 131.5 40.3822 131.5 37.7717 130.702C37.443 127.687 37.1011 124.677 36.7461 121.674C36.6681 120.526 36.5438 119.398 36.3732 118.288C36.1983 115.834 35.9496 113.389 35.6273 110.953C35.6389 110.429 35.5767 109.928 35.4408 109.448C35.1912 106.147 34.8494 102.855 34.4153 99.5742C34.4463 99.5112 34.4775 99.4491 34.5085 99.3861C34.7725 99.2065 34.8503 98.9563 34.7416 98.6338C34.5501 98.394 34.3792 98.1438 34.2288 97.8814C33.9303 94.7452 33.6195 91.6108 33.2965 88.4774C33.1207 86.4217 32.9032 84.3848 32.6438 82.3648C32.558 80.7351 32.5425 79.1053 32.5972 77.4747C32.786 75.3618 32.9259 73.2459 33.0168 71.1269C32.8534 67.2202 32.6203 63.3176 32.3175 59.4189C32.2789 56.2667 32.1701 53.132 31.9912 50.0149C31.9912 49.9836 31.9912 49.9522 31.9912 49.9208C31.9912 49.7641 31.9912 49.6074 31.9912 49.4506C32.3293 48.7053 32.6712 47.953 33.0168 47.1937C33.1268 46.9078 33.2822 46.6571 33.4829 46.4413Z" fill="#172624"/>
<path fill-rule="evenodd" clip-rule="evenodd" d="M52.722 72.9114C52.7842 72.9427 52.8463 72.9741 52.9084 73.0054C53.0971 73.3886 53.1903 73.7961 53.1881 74.2279C53.1171 75.1726 53.0239 76.1134 52.9084 77.0491C52.538 78.6365 52.0097 80.1722 51.3235 81.6571C50.4144 83.3301 49.2179 84.7717 47.734 85.983C46.7356 87.0992 45.7566 88.2277 44.7971 89.3684C44.1944 89.9289 43.6039 90.5091 43.0257 91.1082C42.1104 91.7965 41.2403 92.5338 40.4152 93.3181C39.5885 94.2444 38.7494 95.1698 37.8979 96.0923C37.6582 96.2287 37.4095 96.3387 37.152 96.4214C36.8413 96.4525 36.5304 96.4845 36.2197 96.5155C36.161 96.3312 36.0988 96.1431 36.0332 95.9512C36.1078 95.481 36.1078 94.9958 36.0332 94.4936C36.2306 93.8908 36.3704 93.2796 36.4528 92.6598C36.8676 91.6367 37.225 90.6022 37.5249 89.5565C37.5425 89.5373 37.9192 89.1803 37.8979 89.1803C38.0764 88.5531 38.1876 87.921 38.6437 87.3936C39.0999 86.8661 39.3093 86.3023 39.4828 85.983C40.1331 84.7971 40.8324 83.6376 41.5806 82.5035C43.1685 80.6358 44.769 78.7861 46.3821 76.9551C46.9179 76.4463 47.3841 75.8821 47.7806 75.2624C48.0537 74.8762 48.349 74.5001 48.6663 74.1339C48.9519 73.8916 49.2471 73.6722 49.552 73.4756C49.9756 73.3563 50.3796 73.1838 50.7641 72.9584C51.416 72.9114 52.0686 72.8957 52.722 72.9114Z" fill="#D1746D"/>
<path fill-rule="evenodd" clip-rule="evenodd" d="M19.312 83.4933C19.4327 83.5676 19.5415 83.6616 19.6384 83.7754C20.1377 84.5437 20.6505 85.296 21.1767 86.0324C21.2581 86.2571 21.398 86.4452 21.5963 86.5966C21.6419 86.7179 21.6575 86.8439 21.6429 86.9728C21.741 86.9587 21.8342 86.9746 21.9226 87.0198C22.5342 87.7777 23.2179 88.452 23.9737 89.0417C25.2557 90.1363 26.5143 91.2648 27.7497 92.4271C28.7249 93.6308 29.7349 94.8063 30.7798 95.9536C31.8447 96.7417 32.9945 97.384 34.2294 97.8814C34.3798 98.1438 34.5507 98.394 34.7422 98.6338C34.8509 98.9563 34.7731 99.2065 34.5091 99.3861C34.0784 99.5262 33.6278 99.5892 33.1572 99.5742C32.6125 99.5478 32.0687 99.5168 31.5256 99.4801C31.4331 99.4961 31.371 99.4651 31.3392 99.3861C31.1435 99.2516 30.926 99.1416 30.6865 99.057C29.9723 98.9027 29.2575 98.7617 28.5422 98.6338C27.3521 98.3629 26.2333 97.9087 25.1857 97.2702C22.8195 95.3536 20.4265 93.4728 18.0068 91.6278C15.6923 89.3877 13.9364 86.7706 12.7391 83.7754C12.6188 83.3776 12.5722 82.9704 12.5992 82.5529C12.6303 82.5529 12.6614 82.5529 12.6925 82.5529C14.0597 82.4908 15.4271 82.4748 16.7947 82.5058C17.2977 82.6168 17.795 82.7579 18.2865 82.929C18.1929 83.134 18.255 83.1651 18.4729 83.0231C18.7712 83.166 19.0509 83.3231 19.312 83.4933Z" fill="#D1746D"/>
</svg>
